<svg xmlns="http://www.w3.org/2000/svg" role="img" aria-label="Black cinema seat icon" viewBox="271 255 711 715">
  <title>Black cinema seat icon</title>
  <g fill="#000000" shape-rendering="geometricPrecision">
  <path d="M 436 533 L 430 539 L 430 540 L 426 544 L 426 545 L 423 548 L 423 549 L 421 551 L 421 552 L 419 554 L 419 555 L 418 556 L 418 557 L 417 558 L 417 559 L 416 560 L 416 561 L 414 563 L 414 565 L 413 566 L 413 567 L 412 568 L 412 569 L 411 570 L 411 572 L 410 573 L 410 575 L 409 576 L 409 578 L 408 579 L 408 581 L 407 582 L 407 585 L 406 586 L 406 589 L 405 590 L 405 595 L 404 596 L 404 605 L 403 606 L 403 891 L 404 892 L 404 899 L 405 900 L 405 904 L 406 905 L 406 908 L 407 909 L 407 911 L 408 912 L 408 914 L 409 915 L 409 916 L 410 917 L 410 918 L 411 919 L 411 921 L 412 922 L 412 923 L 414 925 L 414 926 L 415 927 L 415 928 L 417 930 L 417 931 L 419 933 L 419 934 L 421 936 L 421 937 L 428 944 L 428 945 L 429 946 L 430 946 L 435 951 L 436 951 L 439 954 L 440 954 L 442 956 L 443 956 L 445 958 L 446 958 L 447 959 L 448 959 L 449 960 L 450 960 L 451 961 L 452 961 L 453 962 L 454 962 L 455 963 L 456 963 L 457 964 L 459 964 L 460 965 L 462 965 L 463 966 L 465 966 L 466 967 L 469 967 L 470 968 L 474 968 L 475 969 L 483 969 L 484 970 L 769 970 L 770 969 L 778 969 L 779 968 L 783 968 L 784 967 L 787 967 L 788 966 L 790 966 L 791 965 L 793 965 L 794 964 L 796 964 L 797 963 L 798 963 L 799 962 L 800 962 L 801 961 L 802 961 L 803 960 L 804 960 L 805 959 L 806 959 L 807 958 L 808 958 L 810 956 L 811 956 L 813 954 L 814 954 L 817 951 L 818 951 L 823 946 L 824 946 L 825 945 L 825 944 L 831 938 L 831 937 L 834 934 L 834 933 L 836 931 L 836 930 L 838 928 L 838 927 L 839 926 L 839 925 L 840 924 L 840 923 L 841 922 L 841 921 L 842 920 L 842 919 L 843 918 L 843 916 L 844 915 L 844 914 L 845 913 L 845 911 L 846 910 L 846 908 L 847 907 L 847 905 L 848 904 L 848 900 L 849 899 L 849 892 L 850 891 L 850 605 L 849 604 L 849 596 L 848 595 L 848 590 L 847 589 L 847 586 L 846 585 L 846 582 L 845 581 L 845 579 L 844 578 L 844 576 L 843 575 L 843 573 L 842 572 L 842 570 L 841 569 L 841 568 L 840 567 L 840 566 L 839 565 L 839 564 L 838 563 L 838 562 L 837 561 L 837 560 L 836 559 L 836 558 L 835 557 L 835 556 L 834 555 L 834 554 L 832 552 L 832 551 L 830 549 L 830 548 L 826 544 L 826 543 L 813 530 L 812 530 L 809 527 L 808 527 L 806 525 L 805 525 L 803 523 L 802 523 L 801 522 L 800 522 L 799 521 L 798 521 L 797 520 L 796 520 L 795 519 L 794 519 L 793 518 L 792 518 L 791 517 L 789 517 L 788 516 L 786 516 L 785 515 L 783 515 L 782 514 L 778 514 L 777 513 L 771 513 L 770 512 L 483 512 L 482 513 L 476 513 L 475 514 L 472 514 L 471 515 L 468 515 L 467 516 L 465 516 L 464 517 L 462 517 L 461 518 L 460 518 L 459 519 L 458 519 L 457 520 L 456 520 L 455 521 L 454 521 L 453 522 L 452 522 L 451 523 L 450 523 L 449 524 L 448 524 L 446 526 L 445 526 L 442 529 L 441 529 L 437 533 Z"/>
  <path d="M 364 294 L 364 295 L 363 296 L 363 297 L 362 298 L 362 299 L 361 300 L 361 301 L 360 302 L 360 303 L 359 304 L 359 306 L 358 307 L 358 308 L 357 309 L 357 311 L 356 312 L 356 314 L 355 315 L 355 319 L 354 320 L 354 325 L 353 326 L 353 347 L 354 348 L 354 358 L 355 359 L 355 367 L 356 368 L 356 375 L 357 376 L 357 382 L 358 383 L 358 389 L 359 390 L 359 396 L 360 397 L 360 401 L 361 402 L 361 407 L 362 408 L 362 414 L 363 415 L 363 420 L 364 421 L 364 425 L 365 426 L 365 431 L 366 432 L 366 437 L 367 438 L 367 442 L 368 443 L 368 449 L 369 450 L 369 455 L 370 456 L 370 460 L 371 461 L 371 465 L 372 466 L 372 471 L 373 472 L 373 477 L 374 478 L 374 481 L 375 482 L 375 486 L 376 487 L 376 491 L 377 492 L 377 496 L 378 497 L 378 500 L 379 501 L 379 505 L 380 506 L 380 509 L 381 510 L 381 513 L 382 514 L 382 516 L 383 517 L 383 519 L 384 520 L 384 523 L 385 524 L 385 527 L 386 528 L 386 530 L 387 531 L 387 532 L 388 533 L 388 535 L 389 536 L 389 537 L 390 538 L 390 539 L 392 541 L 392 542 L 393 543 L 393 544 L 394 545 L 394 546 L 395 547 L 395 548 L 396 549 L 396 550 L 397 551 L 397 553 L 398 554 L 398 556 L 399 557 L 400 556 L 400 555 L 401 554 L 401 553 L 402 552 L 402 551 L 403 550 L 403 549 L 404 548 L 404 547 L 406 545 L 406 544 L 408 542 L 408 541 L 409 540 L 409 539 L 413 535 L 413 534 L 419 528 L 419 527 L 425 521 L 426 521 L 431 516 L 432 516 L 434 514 L 435 514 L 438 511 L 439 511 L 441 509 L 442 509 L 443 508 L 444 508 L 445 507 L 446 507 L 447 506 L 448 506 L 449 505 L 450 505 L 451 504 L 452 504 L 453 503 L 454 503 L 455 502 L 457 502 L 458 501 L 460 501 L 461 500 L 462 500 L 463 499 L 466 499 L 467 498 L 471 498 L 472 497 L 477 497 L 478 496 L 484 496 L 485 495 L 767 495 L 768 496 L 776 496 L 777 497 L 782 497 L 783 498 L 786 498 L 787 499 L 789 499 L 790 500 L 792 500 L 793 501 L 795 501 L 796 502 L 797 502 L 798 503 L 800 503 L 801 504 L 802 504 L 803 505 L 804 505 L 805 506 L 806 506 L 807 507 L 808 507 L 809 508 L 810 508 L 812 510 L 813 510 L 815 512 L 816 512 L 818 514 L 819 514 L 821 516 L 822 516 L 826 520 L 827 520 L 836 529 L 836 530 L 841 535 L 841 536 L 843 538 L 843 539 L 845 541 L 845 542 L 847 544 L 847 545 L 849 547 L 849 548 L 850 549 L 850 550 L 852 552 L 852 554 L 853 555 L 853 556 L 854 557 L 855 556 L 855 553 L 856 552 L 856 551 L 857 550 L 857 548 L 858 547 L 858 546 L 860 544 L 860 543 L 861 542 L 861 541 L 862 540 L 862 539 L 864 537 L 864 536 L 865 535 L 865 533 L 866 532 L 866 530 L 867 529 L 867 527 L 868 526 L 868 524 L 869 523 L 869 520 L 870 519 L 870 517 L 871 516 L 871 513 L 872 512 L 872 509 L 873 508 L 873 505 L 874 504 L 874 501 L 875 500 L 875 497 L 876 496 L 876 492 L 877 491 L 877 487 L 878 486 L 878 481 L 879 480 L 879 477 L 880 476 L 880 472 L 881 471 L 881 466 L 882 465 L 882 460 L 883 459 L 883 455 L 884 454 L 884 448 L 885 447 L 885 442 L 886 441 L 886 436 L 887 435 L 887 431 L 888 430 L 888 425 L 889 424 L 889 418 L 890 417 L 890 413 L 891 412 L 891 407 L 892 406 L 892 401 L 893 400 L 893 394 L 894 393 L 894 388 L 895 387 L 895 382 L 896 381 L 896 374 L 897 373 L 897 367 L 898 366 L 898 358 L 899 357 L 899 346 L 900 345 L 900 326 L 899 325 L 899 320 L 898 319 L 898 316 L 897 315 L 897 312 L 896 311 L 896 309 L 895 308 L 895 307 L 894 306 L 894 304 L 893 303 L 893 302 L 892 301 L 892 300 L 891 299 L 891 298 L 890 297 L 890 296 L 889 295 L 889 294 L 887 292 L 887 291 L 884 288 L 884 287 L 882 285 L 882 284 L 872 274 L 871 274 L 867 270 L 866 270 L 864 268 L 863 268 L 861 266 L 860 266 L 859 265 L 858 265 L 857 264 L 856 264 L 855 263 L 854 263 L 853 262 L 852 262 L 851 261 L 849 261 L 848 260 L 847 260 L 846 259 L 844 259 L 843 258 L 840 258 L 839 257 L 835 257 L 834 256 L 828 256 L 827 255 L 425 255 L 424 256 L 419 256 L 418 257 L 414 257 L 413 258 L 410 258 L 409 259 L 408 259 L 407 260 L 405 260 L 404 261 L 402 261 L 401 262 L 400 262 L 399 263 L 398 263 L 397 264 L 396 264 L 395 265 L 394 265 L 392 267 L 391 267 L 390 268 L 389 268 L 387 270 L 386 270 L 382 274 L 381 274 L 371 284 L 371 285 L 368 288 L 368 289 L 366 291 L 366 292 Z"/>
  <path d="M 916 520 L 915 521 L 911 521 L 910 522 L 908 522 L 907 523 L 905 523 L 904 524 L 903 524 L 902 525 L 901 525 L 900 526 L 899 526 L 898 527 L 897 527 L 896 528 L 895 528 L 893 530 L 892 530 L 890 532 L 889 532 L 881 540 L 881 541 L 878 544 L 878 545 L 876 547 L 876 548 L 875 549 L 875 550 L 874 551 L 874 552 L 873 553 L 873 554 L 872 555 L 872 557 L 871 558 L 871 560 L 870 561 L 870 563 L 869 564 L 869 569 L 868 570 L 868 896 L 869 897 L 869 902 L 870 903 L 870 906 L 871 907 L 871 908 L 872 909 L 872 911 L 873 912 L 873 913 L 874 914 L 874 915 L 875 916 L 875 917 L 876 918 L 876 919 L 878 921 L 878 922 L 881 925 L 881 926 L 889 934 L 890 934 L 892 936 L 893 936 L 895 938 L 896 938 L 897 939 L 898 939 L 900 941 L 902 941 L 903 942 L 904 942 L 905 943 L 907 943 L 908 944 L 911 944 L 912 945 L 915 945 L 916 946 L 934 946 L 935 945 L 939 945 L 940 944 L 942 944 L 943 943 L 945 943 L 946 942 L 948 942 L 949 941 L 950 941 L 951 940 L 952 940 L 954 938 L 955 938 L 957 936 L 958 936 L 961 933 L 962 933 L 969 926 L 969 925 L 972 922 L 972 921 L 974 919 L 974 918 L 975 917 L 975 916 L 977 914 L 977 912 L 978 911 L 978 909 L 979 908 L 979 906 L 980 905 L 980 902 L 981 901 L 981 896 L 982 895 L 982 571 L 981 570 L 981 565 L 980 564 L 980 560 L 979 559 L 979 557 L 978 556 L 978 555 L 977 554 L 977 553 L 976 552 L 976 551 L 975 550 L 975 549 L 974 548 L 974 547 L 972 545 L 972 544 L 969 541 L 969 540 L 962 533 L 961 533 L 958 530 L 957 530 L 955 528 L 954 528 L 953 527 L 952 527 L 951 526 L 950 526 L 949 525 L 948 525 L 947 524 L 946 524 L 945 523 L 943 523 L 942 522 L 940 522 L 939 521 L 935 521 L 934 520 Z"/>
  <path d="M 319 520 L 318 521 L 314 521 L 313 522 L 311 522 L 310 523 L 308 523 L 307 524 L 306 524 L 305 525 L 304 525 L 303 526 L 302 526 L 301 527 L 300 527 L 299 528 L 298 528 L 296 530 L 295 530 L 292 533 L 291 533 L 285 539 L 285 540 L 282 543 L 282 544 L 280 546 L 280 547 L 278 549 L 278 550 L 277 551 L 277 552 L 276 553 L 276 554 L 275 555 L 275 557 L 274 558 L 274 560 L 273 561 L 273 564 L 272 565 L 272 569 L 271 570 L 271 896 L 272 897 L 272 902 L 273 903 L 273 906 L 274 907 L 274 908 L 275 909 L 275 911 L 276 912 L 276 913 L 277 914 L 277 915 L 278 916 L 278 917 L 279 918 L 279 919 L 281 921 L 281 922 L 284 925 L 284 926 L 292 934 L 293 934 L 296 937 L 297 937 L 298 938 L 299 938 L 300 939 L 301 939 L 303 941 L 305 941 L 306 942 L 307 942 L 308 943 L 309 943 L 310 944 L 313 944 L 314 945 L 318 945 L 319 946 L 337 946 L 338 945 L 341 945 L 342 944 L 345 944 L 346 943 L 348 943 L 349 942 L 350 942 L 351 941 L 353 941 L 355 939 L 356 939 L 357 938 L 358 938 L 360 936 L 361 936 L 364 933 L 365 933 L 370 928 L 370 927 L 375 922 L 375 921 L 377 919 L 377 918 L 378 917 L 378 916 L 379 915 L 379 914 L 380 913 L 380 912 L 381 911 L 381 909 L 382 908 L 382 906 L 383 905 L 383 903 L 384 902 L 384 898 L 385 897 L 385 571 L 384 570 L 384 565 L 383 564 L 383 561 L 382 560 L 382 558 L 381 557 L 381 555 L 380 554 L 380 553 L 379 552 L 379 551 L 378 550 L 378 549 L 376 547 L 376 546 L 374 544 L 374 543 L 369 538 L 369 537 L 365 533 L 364 533 L 361 530 L 360 530 L 359 529 L 358 529 L 356 527 L 355 527 L 354 526 L 353 526 L 352 525 L 351 525 L 350 524 L 349 524 L 348 523 L 346 523 L 345 522 L 342 522 L 341 521 L 338 521 L 337 520 Z"/>
  </g>
</svg>